<?xml version="1.0" encoding="UTF-8" standalone="no"?>
<!-- Created with Inkscape (http://www.inkscape.org/) -->

<svg
   width="251.26099mm"
   height="68.115273mm"
   viewBox="0 0 251.26098 68.115273"
   version="1.1"
   id="svg1"
   inkscape:version="1.4.2 (ebf0e940d0, 2025-05-08)"
   sodipodi:docname="ac-computation.svg"
   xmlns:inkscape="http://www.inkscape.org/namespaces/inkscape"
   xmlns:sodipodi="http://sodipodi.sourceforge.net/DTD/sodipodi-0.dtd"
   xmlns="http://www.w3.org/2000/svg"
   xmlns:svg="http://www.w3.org/2000/svg">
  <sodipodi:namedview
     id="namedview1"
     pagecolor="#ffffff"
     bordercolor="#999999"
     borderopacity="1"
     inkscape:showpageshadow="2"
     inkscape:pageopacity="0"
     inkscape:pagecheckerboard="0"
     inkscape:deskcolor="#d1d1d1"
     inkscape:document-units="mm"
     inkscape:zoom="5.5219009"
     inkscape:cx="881.30883"
     inkscape:cy="126.1341"
     inkscape:window-width="1920"
     inkscape:window-height="1052"
     inkscape:window-x="0"
     inkscape:window-y="0"
     inkscape:window-maximized="1"
     inkscape:current-layer="g11" />
  <defs
     id="defs1">
    <marker
       style="overflow:visible"
       id="RoundedArrow"
       refX="0"
       refY="0"
       orient="auto-start-reverse"
       inkscape:stockid="Rounded arrow"
       markerWidth="0.6"
       markerHeight="0.6"
       viewBox="0 0 1 1"
       inkscape:isstock="true"
       inkscape:collect="always"
       preserveAspectRatio="xMidYMid">
      <path
         transform="scale(0.7)"
         d="m -0.21114562,-4.1055728 6.42229122,3.21114561 a 1,1 90 0 1 0,1.78885438 L -0.21114562,4.1055728 A 1.236068,1.236068 31.717474 0 1 -2,3 v -6 a 1.236068,1.236068 148.28253 0 1 1.78885438,-1.1055728 z"
         style="fill:context-stroke;fill-rule:evenodd;stroke:none"
         id="path11" />
    </marker>
    <inkscape:path-effect
       effect="spiro"
       id="path-effect15"
       is_visible="true"
       lpeversion="1" />
    <inkscape:path-effect
       effect="spiro"
       id="path-effect14"
       is_visible="true"
       lpeversion="1" />
    <inkscape:path-effect
       effect="fillet_chamfer"
       id="path-effect13"
       is_visible="true"
       lpeversion="1"
       nodesatellites_param="F,0,0,1,0,0,0,1 @ F,0,0,1,0,0,0,1 @ F,0,0,1,0,0,0,1 @ F,0,0,1,0,0,0,1"
       radius="0"
       unit="px"
       method="auto"
       mode="F"
       chamfer_steps="1"
       flexible="false"
       use_knot_distance="true"
       apply_no_radius="true"
       apply_with_radius="true"
       only_selected="false"
       hide_knots="false" />
    <linearGradient
       id="swatch3"
       inkscape:swatch="solid">
      <stop
         style="stop-color:#23373b;stop-opacity:1;"
         offset="0"
         id="stop3" />
    </linearGradient>
  </defs>
  <g
     inkscape:label="Layer 1"
     inkscape:groupmode="layer"
     id="layer1"
     transform="translate(-9.7490296,-15.340556)">
    <path
       style="fill:#23373b;fill-opacity:0.200389;stroke:#23373b;stroke-width:1;stroke-linecap:round;stroke-linejoin:round;stroke-dasharray:none;stroke-opacity:1"
       d="m 35.225595,16.382537 c 7.762072,3.047863 12.793617,8.147033 20.387471,7.792833 8.322643,-0.388193 12.230155,4.938368 14.481013,9.99441 2.150986,4.831702 1.206728,16.440047 -2.24166,20.478121 -3.448391,4.038076 -8.757659,8.066974 -9.55522,11.808847 -0.84886,3.982549 1.694636,8.553144 -0.801212,12.468242 -1.43173,2.245875 -7.121069,4.204078 -11.563401,4.018489 C 39.76483,82.685807 34.880776,77.997898 33.080403,76.907553 28.574169,74.178478 19.817399,82.274312 16.221289,76.619225 12.625179,70.964138 15.932519,59.799849 16.290261,58.226653 17.962163,50.87436 9.1344614,43.911766 10.369888,36.782285 12.395336,25.093697 27.029561,13.164275 35.225595,16.382537 Z"
       id="path2"
       sodipodi:nodetypes="ssssssssssss" />
    <path
       style="opacity:1;fill:none;fill-opacity:0.200389;stroke:#000000;stroke-width:0.1;stroke-linecap:round;stroke-linejoin:round;stroke-dasharray:none;stroke-opacity:1"
       d="M 62.615465,46.601559 89.706367,27.991146"
       id="path4" />
    <path
       style="opacity:1;fill:none;fill-opacity:0.200389;stroke:#000000;stroke-width:0.1;stroke-linecap:round;stroke-linejoin:round;stroke-dasharray:none;stroke-opacity:1"
       d="M 62.615465,50.495464 89.706367,70.803909"
       id="path5"
       sodipodi:nodetypes="cc" />
    <circle
       style="fill:#23373b;fill-opacity:0.499193;stroke:#23373b;stroke-width:1;stroke-linecap:round;stroke-linejoin:round;stroke-dasharray:none;stroke-opacity:1"
       id="path3"
       cx="60.395275"
       cy="48.548512"
       r="2.9529419" />
    <g
       id="g13"
       transform="matrix(1.331,0,0,1.331,-43.99052,-15.371415)"
       style="opacity:0.1">
      <circle
         style="fill:#23373b;fill-opacity:0.499193;stroke:#23373b;stroke-width:1;stroke-linecap:round;stroke-linejoin:round;stroke-dasharray:none;stroke-opacity:1"
         id="path3-5"
         cx="114.86323"
         cy="48.548512"
         r="2.9529419" />
      <circle
         style="fill:#23373b;fill-opacity:0.499193;stroke:#23373b;stroke-width:0.7;stroke-linecap:round;stroke-linejoin:round;stroke-dasharray:none;stroke-opacity:1"
         id="path3-5-2"
         cx="103.01707"
         cy="38.440166"
         r="2.0670593" />
      <circle
         style="fill:#23373b;fill-opacity:0.499193;stroke:#23373b;stroke-width:0.7;stroke-linecap:round;stroke-linejoin:round;stroke-dasharray:none;stroke-opacity:1"
         id="path3-5-2-7"
         cx="119.15843"
         cy="31.465202"
         r="2.0670593" />
      <circle
         style="fill:#23373b;fill-opacity:0.499193;stroke:#23373b;stroke-width:0.7;stroke-linecap:round;stroke-linejoin:round;stroke-dasharray:none;stroke-opacity:1"
         id="path3-5-2-7-6"
         cx="131.5976"
         cy="45.849018"
         r="2.0670593" />
      <circle
         style="fill:#23373b;fill-opacity:0.499193;stroke:#23373b;stroke-width:0.7;stroke-linecap:round;stroke-linejoin:round;stroke-dasharray:none;stroke-opacity:1"
         id="path3-5-2-7-6-6"
         cx="123.24293"
         cy="64.582771"
         r="2.0670593" />
      <circle
         style="fill:#23373b;fill-opacity:0.499193;stroke:#23373b;stroke-width:0.7;stroke-linecap:round;stroke-linejoin:round;stroke-dasharray:none;stroke-opacity:1"
         id="path3-5-2-7-6-6-9"
         cx="103.34856"
         cy="59.302509"
         r="2.0670593" />
      <path
         style="opacity:1;fill:none;fill-opacity:0.200389;stroke:#23373b;stroke-width:0.751315;stroke-linecap:round;stroke-linejoin:round;stroke-dasharray:none;stroke-opacity:1;marker-end:url(#RoundedArrow)"
         d="m 104.58948,39.781905 5.94883,5.110321"
         id="path6"
         sodipodi:nodetypes="cc" />
      <path
         style="opacity:1;fill:none;fill-opacity:0.200389;stroke:#23373b;stroke-width:0.751315;stroke-linecap:round;stroke-linejoin:round;stroke-dasharray:none;stroke-opacity:1;marker-end:url(#RoundedArrow)"
         d="m 118.6544,33.469869 -2.40317,9.685277"
         id="path7"
         sodipodi:nodetypes="cc" />
      <path
         style="opacity:1;fill:none;fill-opacity:0.200389;stroke:#23373b;stroke-width:0.751315;stroke-linecap:round;stroke-linejoin:round;stroke-dasharray:none;stroke-opacity:1;marker-end:url(#RoundedArrow)"
         d="m 129.55692,46.178209 -9.15807,1.401927"
         id="path8"
         sodipodi:nodetypes="cc" />
      <path
         style="opacity:1;fill:none;fill-opacity:0.200389;stroke:#23373b;stroke-width:0.751315;stroke-linecap:round;stroke-linejoin:round;stroke-dasharray:none;stroke-opacity:1;marker-end:url(#RoundedArrow)"
         d="m 122.28552,62.750804 -4.75055,-9.330485"
         id="path9"
         sodipodi:nodetypes="cc" />
      <path
         style="opacity:1;fill:none;fill-opacity:0.200389;stroke:#23373b;stroke-width:0.751315;stroke-linecap:round;stroke-linejoin:round;stroke-dasharray:none;stroke-opacity:1;marker-end:url(#RoundedArrow)"
         d="m 104.85923,57.891628 5.90487,-5.547042"
         id="path10"
         sodipodi:nodetypes="cc" />
    </g>
    <g
       id="g12"
       transform="matrix(1.331,0,0,1.331,-51.38116,-14.550795)">
      <circle
         style="fill:#23373b;fill-opacity:0.499193;stroke:#23373b;stroke-width:1;stroke-linecap:round;stroke-linejoin:round;stroke-dasharray:none;stroke-opacity:1"
         id="path3-5-4"
         cx="168.19051"
         cy="48.225124"
         r="2.9529419" />
      <path
         id="path3-5-2-5"
         style="opacity:0.5;fill:#23373b;fill-opacity:0.499193;stroke:#23373b;stroke-width:0.7;stroke-linecap:round;stroke-linejoin:round;stroke-dasharray:none;stroke-opacity:1"
         d="M 156.1382 35.756633 A 2.0670593 2.0670593 0 0 0 154.07114 37.823691 A 2.0670593 2.0670593 0 0 0 156.1382 39.890748 A 2.0670593 2.0670593 0 0 0 158.20526 37.823691 A 2.0670593 2.0670593 0 0 0 156.1382 35.756633 z M 157.71062 39.165492 L 165.73814 46.015046 L 157.71062 39.165492 z " />
      <path
         id="path3-5-2-7-0"
         style="opacity:0.5;fill:#23373b;fill-opacity:0.499193;stroke:#23373b;stroke-width:0.7;stroke-linecap:round;stroke-linejoin:round;stroke-dasharray:none;stroke-opacity:1"
         d="M 172.27942 28.781674 A 2.0670593 2.0670593 0 0 0 170.21236 30.848731 A 2.0670593 2.0670593 0 0 0 172.27942 32.915789 A 2.0670593 2.0670593 0 0 0 174.34647 30.848731 A 2.0670593 2.0670593 0 0 0 172.27942 28.781674 z M 171.77546 32.85328 L 168.70439 45.068098 L 171.77546 32.85328 z " />
      <path
         id="path3-5-2-7-6-3"
         style="opacity:0.5;fill:#23373b;fill-opacity:0.499193;stroke:#23373b;stroke-width:0.7;stroke-linecap:round;stroke-linejoin:round;stroke-dasharray:none;stroke-opacity:1"
         d="M 184.71864 43.165271 A 2.0670593 2.0670593 0 0 0 182.65159 45.232328 A 2.0670593 2.0670593 0 0 0 184.71864 47.299386 A 2.0670593 2.0670593 0 0 0 186.7857 45.232328 A 2.0670593 2.0670593 0 0 0 184.71864 43.165271 z M 182.67799 45.561567 L 170.89957 47.461675 L 182.67799 45.561567 z " />
      <path
         id="path3-5-2-7-6-6-6"
         style="opacity:0.5;fill:#23373b;fill-opacity:0.499193;stroke:#23373b;stroke-width:0.7;stroke-linecap:round;stroke-linejoin:round;stroke-dasharray:none;stroke-opacity:1"
         d="m 169.55042,50.846288 5.85637,11.287845 z m 6.81342,11.052952 c -1.1416,0 -2.06706,0.925452 -2.06706,2.067057 0,1.141605 0.92546,2.067057 2.06706,2.067057 1.1416,-5e-6 2.06705,-0.925456 2.06705,-2.067057 0,-1.141601 -0.92545,-2.067052 -2.06705,-2.067057 z"
         sodipodi:nodetypes="cccsssss" />
      <path
         id="path3-5-2-7-6-6-9-1"
         style="opacity:0.5;fill:#23373b;fill-opacity:0.499193;stroke:#23373b;stroke-width:0.7;stroke-linecap:round;stroke-linejoin:round;stroke-dasharray:none;stroke-opacity:1"
         d="M 165.82627 49.947657 L 157.98046 57.27515 L 165.82627 49.947657 z M 156.46977 56.619003 A 2.0670593 2.0670593 0 0 0 154.40271 58.68606 A 2.0670593 2.0670593 0 0 0 156.46977 60.753118 A 2.0670593 2.0670593 0 0 0 158.53682 58.68606 A 2.0670593 2.0670593 0 0 0 156.46977 56.619003 z " />
    </g>
    <g
       id="g11"
       transform="matrix(1.331,0,0,1.331,-43.99052,-13.8341)"
       style="opacity:0.1">
      <circle
         style="fill:#23373b;fill-opacity:0.499193;stroke:#23373b;stroke-width:1;stroke-linecap:round;stroke-linejoin:round;stroke-dasharray:none;stroke-opacity:1"
         id="path3-5-4-6"
         cx="210"
         cy="47.393501"
         r="2.9529419" />
      <circle
         style="fill:#23373b;fill-opacity:0.499193;stroke:#23373b;stroke-width:0.7;stroke-linecap:round;stroke-linejoin:round;stroke-dasharray:none;stroke-opacity:1"
         id="path3-5-2-5-9"
         cx="198.15384"
         cy="37.28516"
         r="2.0670593" />
      <circle
         style="fill:#23373b;fill-opacity:0.499193;stroke:#23373b;stroke-width:0.7;stroke-linecap:round;stroke-linejoin:round;stroke-dasharray:none;stroke-opacity:1"
         id="path3-5-2-7-0-3"
         cx="214.2952"
         cy="30.310194"
         r="2.0670593" />
      <circle
         style="fill:#23373b;fill-opacity:0.499193;stroke:#23373b;stroke-width:0.7;stroke-linecap:round;stroke-linejoin:round;stroke-dasharray:none;stroke-opacity:1"
         id="path3-5-2-7-6-3-7"
         cx="226.73436"
         cy="44.694008"
         r="2.0670593" />
      <circle
         style="fill:#23373b;fill-opacity:0.499193;stroke:#23373b;stroke-width:0.7;stroke-linecap:round;stroke-linejoin:round;stroke-dasharray:none;stroke-opacity:1"
         id="path3-5-2-7-6-6-6-4"
         cx="218.3797"
         cy="63.427765"
         r="2.0670593" />
      <circle
         style="fill:#23373b;fill-opacity:0.499193;stroke:#23373b;stroke-width:0.7;stroke-linecap:round;stroke-linejoin:round;stroke-dasharray:none;stroke-opacity:1"
         id="path3-5-2-7-6-6-9-1-5"
         cx="198.48532"
         cy="58.147503"
         r="2.0670593" />
      <path
         style="fill:none;fill-opacity:0.200389;stroke:#23373b;stroke-width:0.751315;stroke-linecap:round;stroke-linejoin:round;stroke-dasharray:none;stroke-opacity:1;marker-start:url(#RoundedArrow)"
         d="m 201.50208,40.284805 6.25161,5.191926"
         id="path6-0-2"
         sodipodi:nodetypes="cc" />
      <path
         style="fill:none;fill-opacity:0.200389;stroke:#23373b;stroke-width:0.751315;stroke-linecap:round;stroke-linejoin:round;stroke-dasharray:none;stroke-opacity:1;marker-start:url(#RoundedArrow)"
         d="m 213.36385,34.740824 -2.64383,9.788868"
         id="path7-6-5"
         sodipodi:nodetypes="cc" />
      <path
         style="fill:none;fill-opacity:0.200389;stroke:#23373b;stroke-width:0.751315;stroke-linecap:round;stroke-linejoin:round;stroke-dasharray:none;stroke-opacity:1;marker-start:url(#RoundedArrow)"
         d="m 222.19945,45.445264 -9.28421,1.477966"
         id="path8-3-4"
         sodipodi:nodetypes="cc" />
      <path
         style="fill:none;fill-opacity:0.200389;stroke:#23373b;stroke-width:0.751315;stroke-linecap:round;stroke-linejoin:round;stroke-dasharray:none;stroke-opacity:1;marker-start:url(#RoundedArrow)"
         d="m 216.24162,59.421453 -4.87391,-9.410856"
         id="path9-2-7"
         sodipodi:nodetypes="cc" />
      <path
         style="fill:none;fill-opacity:0.200389;stroke:#23373b;stroke-width:0.751315;stroke-linecap:round;stroke-linejoin:round;stroke-dasharray:none;stroke-opacity:1;marker-start:url(#RoundedArrow)"
         d="m 201.81941,55.072686 6.02246,-5.66364"
         id="path10-0-4"
         sodipodi:nodetypes="cc" />
    </g>
    <path
       id="path14"
       style="opacity:1;fill:none;stroke:#23373b;stroke-width:0.3993;stroke-linecap:round;stroke-linejoin:round;stroke-dasharray:none"
       d="m 174.15473,49.636844 c 0,0.924663 -0.7496,1.674251 -1.67426,1.67425 -0.92466,1e-6 -1.67425,-0.749587 -1.67425,-1.67425 0,-0.924663 0.74959,-1.67425 1.67425,-1.674249"
       sodipodi:nodetypes="cssc" />
    <path
       sodipodi:type="star"
       style="opacity:1;fill:#23373b;stroke-width:0.3;stroke-linecap:round;stroke-linejoin:round"
       id="path1"
       inkscape:flatsided="true"
       sodipodi:sides="3"
       sodipodi:cx="582.60162"
       sodipodi:cy="128.60083"
       sodipodi:r1="2.9331427"
       sodipodi:r2="1.0627981"
       sodipodi:arg1="-1.5707963"
       sodipodi:arg2="-0.52359878"
       inkscape:rounded="0"
       inkscape:randomized="0"
       d="m 582.60162,125.66769 2.54018,4.39971 -5.08035,0 z"
       transform="matrix(0.35216041,0,0,0.35216041,-31.014563,4.3487221)"
       inkscape:transform-center-x="4.0461458e-06"
       inkscape:transform-center-y="-0.18713917" />
  </g>
</svg>
